<?xml version="1.0" standalone="no"?>
<!DOCTYPE svg PUBLIC "-//W3C//DTD SVG 20010904//EN"
 "http://www.w3.org/TR/2001/REC-SVG-20010904/DTD/svg10.dtd">
<svg version="1.0" xmlns="http://www.w3.org/2000/svg"
 width="154.000000pt" height="62.000000pt" viewBox="0 0 154.000000 62.000000"
 preserveAspectRatio="xMidYMid meet">

<g transform="translate(0.000000,62.000000) scale(0.100000,-0.100000)"
fill="#000000" stroke="none">
<path d="M865 412 c-40 -8 -45 -22 -45 -112 0 -98 7 -111 61 -112 50 -2 69 29
69 111 0 90 -26 125 -85 113z m35 -113 c0 -71 -2 -80 -17 -77 -15 3 -19 16
-21 67 -3 73 1 91 23 91 12 0 15 -15 15 -81z"/>
<path d="M170 300 l0 -110 49 0 c66 0 81 21 81 110 0 89 -15 110 -81 110 l-49
0 0 -110z m75 0 c0 -63 -3 -75 -17 -78 -16 -3 -18 6 -18 78 0 72 2 81 18 78
14 -3 17 -15 17 -78z"/>
<path d="M330 300 l0 -110 25 0 24 0 0 110 0 110 -24 0 -25 0 0 -110z"/>
<path d="M400 407 c0 -1 9 -49 20 -107 11 -58 20 -106 20 -107 0 -2 11 -3 25
-3 14 0 25 2 25 4 0 3 9 50 20 106 11 56 20 103 20 106 0 2 -9 4 -20 4 -21 0
-24 -7 -36 -95 l-7 -50 -15 73 c-12 59 -18 72 -33 72 -11 0 -19 -1 -19 -3z"/>
<path d="M620 395 c0 -9 5 -59 12 -111 11 -89 13 -94 35 -94 18 0 23 5 23 28
0 15 3 45 7 67 l7 40 11 -65 c8 -54 14 -66 31 -68 19 -3 21 5 33 103 7 59 11
109 7 112 -3 3 -12 3 -21 0 -10 -5 -15 -20 -15 -52 0 -25 -4 -45 -10 -45 -5 0
-10 12 -10 28 -1 74 -34 100 -45 35 -11 -64 -19 -70 -24 -18 -5 37 -11 51 -23
53 -11 2 -18 -3 -18 -13z"/>
<path d="M980 300 c0 -103 1 -110 20 -110 17 0 20 7 20 50 0 28 4 50 9 50 10
0 31 -54 31 -81 0 -14 7 -19 25 -19 29 0 29 0 11 62 -13 40 -13 48 0 59 19 15
18 64 -2 83 -10 10 -33 16 -65 16 l-49 0 0 -110z m85 50 c0 -18 -6 -26 -22
-28 -20 -3 -23 1 -23 28 0 27 3 31 23 28 16 -2 22 -10 22 -28z"/>
<path d="M1140 300 l0 -110 50 0 c38 0 50 4 50 15 0 9 -9 15 -25 15 -25 0 -25
0 -25 95 0 95 0 95 -25 95 l-25 0 0 -110z"/>
<path d="M1260 300 l0 -110 48 0 c69 0 82 17 82 112 0 91 -13 108 -83 108
l-47 0 0 -110z m80 0 c0 -64 -3 -80 -15 -80 -12 0 -15 16 -15 80 0 64 3 80 15
80 12 0 15 -16 15 -80z"/>
</g>
</svg>
